<?xml version="1.0" standalone="no"?>
<!DOCTYPE svg PUBLIC "-//W3C//DTD SVG 20010904//EN"
 "http://www.w3.org/TR/2001/REC-SVG-20010904/DTD/svg10.dtd">
<svg version="1.0" xmlns="http://www.w3.org/2000/svg"
 width="718.000000pt" height="1280.000000pt" viewBox="0 0 718.000000 1280.000000"
 preserveAspectRatio="xMidYMid meet">
<metadata>
Created by potrace 1.15, written by Peter Selinger 2001-2017
</metadata>
<g transform="translate(0.000000,1280.000000) scale(0.100000,-0.100000)"
fill="#ff9800" stroke="none">
<path d="M5650 12793 c-23 -5 -347 -117 -1300 -453 -201 -71 -610 -215 -910
-320 -300 -105 -747 -263 -995 -350 -247 -87 -688 -242 -980 -345 -1364 -479
-1420 -499 -1444 -523 l-24 -24 7 -451 c4 -249 11 -821 16 -1272 6 -451 14
-1191 20 -1645 5 -454 14 -1207 20 -1675 6 -467 15 -1199 20 -1625 5 -426 15
-1218 21 -1760 7 -542 15 -994 19 -1005 5 -12 365 -302 801 -645 437 -343 813
-641 836 -662 26 -23 52 -38 68 -38 29 0 64 16 80 36 6 7 525 390 1155 851
3709 2717 3680 2695 3730 2758 65 82 117 190 147 304 27 105 25 70 43 781 6
217 15 541 20 720 5 179 14 485 20 680 6 195 15 510 20 700 6 190 15 499 20
688 6 188 15 497 20 687 6 190 15 500 20 690 34 1174 43 1468 66 2241 13 464
13 528 0 592 -26 124 -75 194 -170 245 -35 19 -57 22 -146 22 l-105 0 -359
-187 c-198 -104 -360 -187 -362 -185 -1 1 7 198 17 437 14 315 16 449 9 485
-21 103 -93 190 -190 232 -36 15 -166 25 -210 16z m214 -1253 c-5 -5 -743
-391 -1639 -858 -1086 -566 -1632 -846 -1637 -838 -4 6 -8 21 -8 33 0 12 -13
60 -29 107 -97 290 -341 509 -660 593 -118 31 -348 43 -469 23 -208 -32 -396
-111 -568 -239 l-31 -23 -297 193 -298 192 121 43 121 43 1498 206 c823 114
2024 280 2667 370 644 89 1186 163 1205 164 22 1 31 -2 24 -9z"/>
</g>
</svg>
